<?xml version="1.0" encoding="UTF-8" standalone="no"?>
<!-- Created with Inkscape (http://www.inkscape.org/) -->

<svg
   width="72.889275mm"
   height="13.275732mm"
   viewBox="0 0 72.889275 13.275732"
   version="1.1"
   id="svg5138"
   sodipodi:docname="Arvensteyn_Logo.svg"
   inkscape:version="1.1.1 (c3084ef, 2021-09-22)"
   xmlns:inkscape="http://www.inkscape.org/namespaces/inkscape"
   xmlns:sodipodi="http://sodipodi.sourceforge.net/DTD/sodipodi-0.dtd"
   xmlns="http://www.w3.org/2000/svg"
   xmlns:svg="http://www.w3.org/2000/svg">
  <sodipodi:namedview
     id="namedview5140"
     pagecolor="#ffffff"
     bordercolor="#666666"
     borderopacity="1.0"
     inkscape:pageshadow="2"
     inkscape:pageopacity="0.0"
     inkscape:pagecheckerboard="0"
     inkscape:document-units="mm"
     showgrid="false"
     showguides="false"
     inkscape:zoom="1.2191577"
     inkscape:cx="87.355394"
     inkscape:cy="94.73754"
     inkscape:window-width="1383"
     inkscape:window-height="847"
     inkscape:window-x="0"
     inkscape:window-y="25"
     inkscape:window-maximized="0"
     inkscape:current-layer="g9707"
     objecttolerance="10"
     fit-margin-top="0"
     fit-margin-left="0"
     fit-margin-right="0"
     fit-margin-bottom="0">
    <inkscape:grid
       type="xygrid"
       id="grid9693"
       units="mm"
       spacingx="1.35"
       spacingy="1.35"
       originx="-93.978323"
       originy="-27.224268" />
  </sodipodi:namedview>
  <defs
     id="defs5135" />
  <g
     inkscape:label="Ebene 1"
     inkscape:groupmode="layer"
     id="layer1"
     transform="translate(-93.978325,-27.224268)">
    <g
       id="g9707"
       style="fill:#093a80;fill-opacity:1"
       transform="translate(72.722076,2.642467)">
      <g
         id="g12689">
        <g
           aria-label="Arvensteyn"
           id="text5408"
           style="font-size:16.9333px;line-height:1.25;font-family:'Test Metric';-inkscape-font-specification:'Test Metric, Normal';fill:#093a80;fill-opacity:1;stroke-width:0.264583"
           transform="translate(-10.937749,-16.342735)">
          <path
             d="m 36.257998,40.924536 -4.064,10.397066 h 1.354667 l 3.318933,-8.7376 c 1.117395,2.912612 2.23504,5.825128 3.3528,8.7376 h 1.354666 l -4.064,-10.397066 z"
             style="font-size:16.9333px;fill:#093a80;fill-opacity:1"
             id="path8312"
             sodipodi:nodetypes="cccccccccc" />
          <path
             d="m 46.92097,43.769336 c -0.135466,-0.06773 -0.4064,-0.118534 -0.728133,-0.118534 -0.829733,0 -1.540933,0.491067 -1.862667,1.134534 v -0.982134 h -1.269999 v 7.5184 h 1.269999 v -5.046133 c 0.254,-0.880533 0.948267,-1.405467 1.744134,-1.405467 0.321733,0 0.643466,0.06773 0.846666,0.2032 z"
             style="font-size:16.9333px;fill:#093a80;fill-opacity:1"
             id="path8314" />
          <path
             d="m 51.819995,51.321602 2.929466,-7.5184 h -1.337733 l -2.1844,5.909733 -2.201333,-5.909733 h -1.3716 l 2.912533,7.5184 z"
             style="font-size:16.9333px;fill:#093a80;fill-opacity:1"
             id="path8316" />
          <path
             d="m 61.950625,47.782535 v -0.4572 c 0,-2.201333 -1.049866,-3.674533 -3.081866,-3.674533 -1.998134,0 -3.3528,1.642534 -3.3528,3.979333 0,2.370667 1.456266,3.843867 3.623733,3.843867 0.897467,0 1.6764,-0.186267 2.286,-0.6604 v -1.1684 c -0.677333,0.508 -1.286933,0.7112 -2.1336,0.7112 -1.3716,0 -2.472267,-0.829733 -2.523067,-2.573867 z m -3.064933,-3.047999 c 1.2192,0 1.778,0.948266 1.8288,2.048933 h -3.877733 c 0.237066,-1.388533 1.049866,-2.048933 2.048933,-2.048933 z"
             style="font-size:16.9333px;fill:#093a80;fill-opacity:1"
             id="path8318" />
          <path
             d="m 63.664597,51.321602 h 1.27 v -5.096933 c 0.270933,-0.8128 1.032933,-1.405467 1.913466,-1.405467 1.134534,0 1.659467,0.728134 1.659467,1.778 v 4.7244 h 1.286933 v -4.9276 c 0,-1.642533 -0.931333,-2.7432 -2.6416,-2.7432 -0.9652,0 -1.778,0.508 -2.218266,1.100667 v -0.948267 h -1.27 z"
             style="font-size:16.9333px;fill:#093a80;fill-opacity:1"
             id="path8320" />
          <path
             d="m 71.492557,50.728935 c 0.5588,0.440267 1.490133,0.745067 2.472266,0.745067 1.5748,0 2.810934,-0.795867 2.810934,-2.1844 0,-1.0668 -0.626534,-1.7272 -1.761067,-2.116667 l -1.151467,-0.389466 c -0.7112,-0.254 -1.1176,-0.4572 -1.1176,-1.0668 0,-0.643467 0.643467,-0.982133 1.4224,-0.982133 0.9144,0 1.608667,0.372533 2.2352,0.897466 v -1.3208 c -0.6096,-0.423333 -1.388533,-0.6604 -2.2352,-0.6604 -1.490133,0 -2.658533,0.795867 -2.658533,2.116667 0,1.2192 0.762,1.761066 1.896533,2.1336 l 1.032934,0.3556 c 0.6604,0.220133 1.083733,0.524933 1.083733,1.083733 0,0.745067 -0.728133,1.049867 -1.557867,1.049867 -0.9144,0 -1.777999,-0.372534 -2.472266,-1.016 z"
             style="font-size:16.9333px;fill:#093a80;fill-opacity:1"
             id="path8322" />
          <path
             d="m 80.614069,44.886936 h 1.744133 v -1.083734 h -1.744133 v -1.9812 h -1.27 v 1.9812 h -1.5748 v 1.083734 h 1.5748 v 6.434666 h 1.27 z"
             style="font-size:16.9333px;fill:#093a80;fill-opacity:1"
             id="path8324" />
          <path
             d="m 89.665726,47.782535 v -0.4572 c 0,-2.201333 -1.049866,-3.674533 -3.081866,-3.674533 -1.998133,0 -3.3528,1.642534 -3.3528,3.979333 0,2.370667 1.456267,3.843867 3.623733,3.843867 0.897467,0 1.6764,-0.186267 2.286,-0.6604 v -1.1684 c -0.677333,0.508 -1.286933,0.7112 -2.1336,0.7112 -1.3716,0 -2.472266,-0.829733 -2.523066,-2.573867 z m -3.064933,-3.047999 c 1.2192,0 1.778,0.948266 1.8288,2.048933 H 84.55186 c 0.237067,-1.388533 1.049867,-2.048933 2.048933,-2.048933 z"
             style="font-size:16.9333px;fill:#093a80;fill-opacity:1"
             id="path8326" />
          <path
             d="m 93.465673,54.200268 4.047066,-10.397066 h -1.3208 l -2.184399,5.926667 -2.218267,-5.926667 h -1.3716 l 2.929467,7.5692 -1.134534,2.827866 z"
             style="font-size:16.9333px;fill:#093a80;fill-opacity:1"
             id="path8328" />
          <path
             d="m 98.9534,51.321602 h 1.27 v -5.096933 c 0.27093,-0.8128 1.03293,-1.405467 1.91347,-1.405467 1.13453,0 1.65946,0.728134 1.65946,1.778 v 4.7244 h 1.28694 v -4.9276 c 0,-1.642533 -0.93134,-2.7432 -2.6416,-2.7432 -0.9652,0 -1.778,0.508 -2.21827,1.100667 v -0.948267 h -1.27 z"
             style="font-size:16.9333px;fill:#093a80;fill-opacity:1"
             id="path8330" />
        </g>
        <path
           d="m 24.477924,37.857533 2.389557,-5.77573 h -1.35 l -2.389557,5.77573 z"
           style="font-size:16.9333px;line-height:1.25;font-family:'Test Metric';-inkscape-font-specification:'Test Metric, Normal';fill:#093a80;fill-opacity:1;stroke-width:0.295741"
           id="path8328-7"
           sodipodi:nodetypes="ccccc" />
      </g>
    </g>
  </g>
</svg>
