<?xml version="1.0" encoding="utf-8"?>
<!-- Generator: Adobe Illustrator 26.5.0, SVG Export Plug-In . SVG Version: 6.00 Build 0)  -->
<svg version="1.1" id="Ebene_1" xmlns="http://www.w3.org/2000/svg" xmlns:xlink="http://www.w3.org/1999/xlink" x="0px" y="0px"
	 viewBox="0 0 1920 1080" style="enable-background:new 0 0 1920 1080;" xml:space="preserve">
<g>
	<g>
		<path d="M917.8,578.94c-4.54,0-8.86,0-13.81,0c13.86-35.51,27.59-70.68,41.37-106c4.27,0,8.45,0,12.96,0
			c13.7,35.07,27.44,70.26,41.34,105.86c-4.67,0-8.93,0-13.81,0c-11.17-29.1-22.47-58.54-33.77-87.97
			c-0.27-0.01-0.54-0.02-0.81-0.03C940.13,520.15,928.98,549.51,917.8,578.94z"/>
		<path d="M950.37,551c4.25,0,8.07,0,12.45,0c-7.62,19.31-15.11,38.28-22.64,57.35c-4.17,0-8.22,0-12.79,0
			C935.11,589.07,942.71,570.12,950.37,551z"/>
	</g>
</g>
</svg>
